<svg version="1.1" xmlns="http://www.w3.org/2000/svg" x="0px" y="0px" viewBox="0 0 193.9 32.3" enable-background="new 0 0 193.9 32.3" xmlns:xlink="http://www.w3.org/1999/xlink" xml:space="preserve" class="gobpe__text-svg">
<g id="Ejemplo">
</g>
<g id="Guías">
</g>
<g id="Fondo_1_">
	<g id="Fondo">
	</g>
	<g id="Estrellas">
	</g>
</g>
<g id="Colores">
</g>
<g id="Ilustración">
	<g id="Atras">
	</g>
	<g id="Medio">
	</g>
	<g id="Adelante">
	</g>
</g>
<g id="Prueba" display="none">
	<g id="Layer_6" display="inline">
	</g>
	<g id="Layer_5" display="inline">
	</g>
	<g id="Layer_1" display="inline">
		<g id="Layer_2">
		</g>
	</g>
</g>
<g id="Filtro_Color">
	<g>
		<g>
			<path fill="#FFFFFF" d="M1.3,12.6V0.9h4.4c3,0,4.8,1.5,4.8,4c0,2.5-1.8,4-4.8,4H2.8v3.6H1.3z M5.6,7.6C7.8,7.6,9,6.7,9,5
				c0-1.8-1.1-2.7-3.3-2.7H2.8v5.4H5.6z"></path>
			<path fill="#FFFFFF" d="M5.7,1.1c2.9,0,4.6,1.5,4.6,3.9c0,2.4-1.8,3.9-4.6,3.9H2.6v3.6H1.4V1.1H5.7 M2.6,7.8h3
				c2.3,0,3.5-1,3.5-2.8c0-1.8-1.2-2.9-3.5-2.9h-3V7.8 M5.7,0.8H1.4H1.1v0.3v11.4v0.3h0.3h1.2h0.3v-0.3V9.1h2.8
				c3.1,0,4.9-1.6,4.9-4.2C10.6,2.4,8.7,0.8,5.7,0.8L5.7,0.8z M2.9,2.4h2.7c1.4,0,3.2,0.4,3.2,2.6c0,2.1-1.7,2.5-3.2,2.5H2.9V2.4
				L2.9,2.4z"></path>
		</g>
		<g>
			<rect x="12.7" y="0.2" fill="#FFFFFF" width="1.5" height="12.3"></rect>
			<path fill="#FFFFFF" d="M14,0.4v12h-1.2v-12H14 M14.3,0.1H14h-1.2h-0.3v0.3v12v0.3h0.3H14h0.3v-0.3v-12V0.1L14.3,0.1z"></path>
		</g>
		<g>
			<path fill="#FFFFFF" d="M19.6,12.7c-2,0-3.3-1-3.3-2.6c0-1,0.4-2.6,3.4-2.6h2.6V7.1c0-1.4-0.8-2.1-2.3-2.1c-1,0-2.1,0.4-2.7,1
				l-0.1,0.1l-0.7-1.1l0.1-0.1c0.9-0.8,2.2-1.2,3.6-1.2c2.3,0,3.6,1.2,3.6,3.5v5.4h-1.4v-1C21.8,12.3,20.8,12.7,19.6,12.7z
				 M19.8,8.6c-1.4,0-2,0.5-2,1.4c0,0.9,0.8,1.5,2,1.5c1.2,0,2.1-0.6,2.6-1.6l0-1.2H19.8z"></path>
			<path fill="#FFFFFF" d="M20.2,3.8c2.2,0,3.5,1.1,3.5,3.3v5.3h-1.1v-1.3C22,12,21,12.5,19.6,12.5c-1.9,0-3.1-1-3.1-2.5
				c0-1.3,0.8-2.4,3.3-2.4h2.7V7.1c0-1.5-0.8-2.3-2.4-2.3c-1.1,0-2.1,0.4-2.8,1L16.7,5C17.6,4.2,18.8,3.8,20.2,3.8 M19.8,11.6
				c1.3,0,2.3-0.6,2.7-1.7V8.5h-2.7c-1.7,0-2.2,0.7-2.2,1.5C17.6,11,18.4,11.6,19.8,11.6 M20.2,3.5c-1.4,0-2.8,0.4-3.7,1.2l-0.2,0.2
				l0.1,0.2L17,6l0.2,0.3l0.3-0.2c0.7-0.6,1.7-0.9,2.6-0.9c1.4,0,2.1,0.7,2.1,2v0.2h-2.4c-3.2,0-3.6,1.9-3.6,2.7
				c0,1.7,1.3,2.8,3.4,2.8c1.1,0,2-0.3,2.6-0.9v0.5v0.3h0.3h1.1h0.3v-0.3V7.1C23.9,4.8,22.6,3.5,20.2,3.5L20.2,3.5z M19.8,11.3
				c-1.2,0-1.9-0.5-1.9-1.3c0-0.5,0.2-1.2,1.9-1.2h2.4v1C21.8,10.8,20.9,11.3,19.8,11.3L19.8,11.3z"></path>
		</g>
		<g>
			<path fill="#FFFFFF" d="M29.5,12.7c-1.7,0-2.7-1-2.7-2.6V5h-1.5V3.7h1.5V1.9h1.5v1.9h2.6V5h-2.6V10c0,0.9,0.5,1.4,1.3,1.4
				c0.5,0,0.9-0.1,1.2-0.4l0.1-0.1l0.5,1.1L31.4,12C30.9,12.4,30.2,12.7,29.5,12.7z"></path>
			<path fill="#FFFFFF" d="M28.1,2v1.9h2.6v1h-2.6V10c0,1,0.5,1.6,1.5,1.6c0.5,0,0.9-0.1,1.3-0.4l0.4,0.8c-0.5,0.4-1.1,0.6-1.8,0.6
				c-1.6,0-2.5-0.9-2.5-2.5V4.9h-1.5v-1H27V2H28.1 M28.4,1.7h-0.3H27h-0.3V2v1.6h-1.2h-0.3v0.3v1v0.3h0.3h1.2V10
				c0,1.7,1,2.8,2.8,2.8c0.8,0,1.5-0.2,2-0.7l0.2-0.2l-0.1-0.2l-0.4-0.8L31,10.6l-0.3,0.3c-0.3,0.2-0.6,0.4-1.1,0.4
				c-0.8,0-1.2-0.4-1.2-1.3V5.2h2.3H31V4.9v-1V3.6h-0.3h-2.3V2V1.7L28.4,1.7z"></path>
		</g>
		<g>
			<path fill="#FFFFFF" d="M35.8,12.7c-2,0-3.3-1-3.3-2.6c0-1,0.4-2.6,3.4-2.6h2.6V7.1c0-1.4-0.8-2.1-2.3-2.1c-1,0-2.1,0.4-2.7,1
				l-0.1,0.1l-0.7-1.1l0.1-0.1c0.9-0.8,2.2-1.2,3.6-1.2c2.3,0,3.6,1.2,3.6,3.5v5.4h-1.4v-1C38,12.3,37,12.7,35.8,12.7z M36,8.6
				c-1.4,0-2,0.5-2,1.4c0,0.9,0.8,1.5,2,1.5c1.2,0,2.1-0.6,2.6-1.6l0-1.2H36z"></path>
			<path fill="#FFFFFF" d="M36.4,3.8c2.2,0,3.5,1.1,3.5,3.3v5.3h-1.1v-1.3c-0.5,0.9-1.5,1.4-2.9,1.4c-1.9,0-3.1-1-3.1-2.5
				c0-1.3,0.8-2.4,3.3-2.4h2.7V7.1c0-1.5-0.8-2.3-2.4-2.3c-1.1,0-2.1,0.4-2.8,1L32.9,5C33.8,4.2,35,3.8,36.4,3.8 M36,11.6
				c1.3,0,2.3-0.6,2.7-1.7V8.5H36c-1.7,0-2.2,0.7-2.2,1.5C33.8,11,34.6,11.6,36,11.6 M36.4,3.5c-1.4,0-2.8,0.4-3.7,1.2l-0.2,0.2
				l0.1,0.2L33.2,6l0.2,0.3l0.3-0.2c0.7-0.6,1.6-0.9,2.6-0.9c1.4,0,2.1,0.7,2.1,2v0.2H36c-3.2,0-3.6,1.9-3.6,2.7
				c0,1.7,1.3,2.8,3.4,2.8c1.1,0,2-0.3,2.6-0.9v0.5v0.3h0.3h1.1h0.3v-0.3V7.1C40.1,4.8,38.8,3.5,36.4,3.5L36.4,3.5z M36,11.3
				c-1.2,0-1.9-0.5-1.9-1.3c0-0.5,0.2-1.2,1.9-1.2h2.4v1C38,10.8,37.1,11.3,36,11.3L36,11.3z"></path>
		</g>
		<g>
			<path fill="#FFFFFF" d="M43,12.6V5h-1.5V3.7H43V2.8c0-1.7,1-2.7,2.7-2.7c0.7,0,1.4,0.2,1.8,0.6l0.1,0.1l-0.5,1.1L47,1.8
				c-0.3-0.2-0.7-0.4-1.2-0.4c-0.9,0-1.4,0.5-1.4,1.5v0.9h2.6V5h-2.6v7.6H43z"></path>
			<path fill="#FFFFFF" d="M45.8,0.3c0.6,0,1.3,0.2,1.7,0.5l-0.4,0.9c-0.3-0.3-0.8-0.4-1.3-0.4c-1,0-1.5,0.6-1.5,1.6v1h2.6v1h-2.6
				v7.6h-1.2V4.9h-1.5v-1h1.5V2.8C43.2,1.3,44.1,0.3,45.8,0.3 M45.8,0c-1.8,0-2.9,1.1-2.9,2.8v0.8h-1.2h-0.3v0.3v1v0.3h0.3h1.2v7.3
				v0.3h0.3h1.2h0.3v-0.3V5.2h2.3h0.3V4.9v-1V3.6h-0.3h-2.3V2.9c0-0.9,0.4-1.3,1.2-1.3c0.4,0,0.8,0.1,1.1,0.4l0.3,0.3l0.2-0.4
				L47.7,1l0.1-0.2l-0.2-0.1C47.2,0.2,46.5,0,45.8,0L45.8,0z"></path>
		</g>
		<g>
			<path fill="#FFFFFF" d="M51.8,12.7c-2.6,0-4.5-1.9-4.5-4.5c0-2.6,1.9-4.5,4.5-4.5c2.6,0,4.5,1.9,4.5,4.5
				C56.3,10.8,54.4,12.7,51.8,12.7z M51.8,5c-1.8,0-3,1.3-3,3.2c0,1.9,1.2,3.2,3,3.2c1.8,0,3-1.3,3-3.2C54.8,6.3,53.6,5,51.8,5z"></path>
			<path fill="#FFFFFF" d="M51.8,3.8c2.5,0,4.3,1.8,4.3,4.3s-1.8,4.4-4.3,4.4c-2.5,0-4.4-1.8-4.4-4.4S49.3,3.8,51.8,3.8 M51.8,11.5
				c1.8,0,3.2-1.3,3.2-3.3s-1.3-3.3-3.2-3.3c-1.8,0-3.2,1.3-3.2,3.3S50,11.5,51.8,11.5 M51.8,3.5c-2.7,0-4.7,1.9-4.7,4.6
				c0,2.7,2,4.7,4.7,4.7c2.7,0,4.6-2,4.6-4.7C56.5,5.5,54.5,3.5,51.8,3.5L51.8,3.5z M51.8,11.2c-1.7,0-2.9-1.2-2.9-3
				c0-1.8,1.2-3,2.9-3c1.7,0,2.9,1.2,2.9,3C54.7,9.9,53.5,11.2,51.8,11.2L51.8,11.2z"></path>
		</g>
		<g>
			<path fill="#FFFFFF" d="M58.4,12.6V3.7h1.4V5c0.6-0.9,1.7-1.3,3-1.3H63v1.4h-0.2c-0.1,0-0.1,0-0.2,0l-0.1,0c-1.7,0-2.7,1.1-2.7,3
				v4.5H58.4z"></path>
			<path fill="#FFFFFF" d="M62.8,3.8v1.1c-0.1,0-0.2,0-0.3,0c-1.8,0-2.9,1.1-2.9,3.1v4.4h-1.2V3.9h1.1v1.7
				C60.2,4.4,61.3,3.8,62.8,3.8 M63.1,3.5h-0.3c-1.3,0-2.2,0.4-2.9,1.1V3.9V3.6h-0.3h-1.1h-0.3v0.3v8.5v0.3h0.3h1.2H60v-0.3V8.1
				c0-1.8,0.9-2.8,2.6-2.8c0,0,0.1,0,0.1,0c0.1,0,0.1,0,0.2,0h0.3V4.9V3.8V3.5L63.1,3.5z"></path>
		</g>
		<g>
			<path fill="#FFFFFF" d="M77.7,12.6v-5c0-1.7-0.8-2.6-2.3-2.6c-1.7,0-2.7,1.1-2.7,2.9v4.6h-1.5v-5c0-1.7-0.8-2.6-2.3-2.6
				c-1.7,0-2.7,1.1-2.7,2.9v4.6h-1.5V3.7h1.4V5c0.7-0.8,1.7-1.3,3-1.3c1.4,0,2.5,0.6,3.1,1.6c0.7-1,1.9-1.6,3.4-1.6
				c2.3,0,3.6,1.4,3.6,3.8v5.1H77.7z"></path>
			<path fill="#FFFFFF" d="M75.6,3.8C77.7,3.8,79,5,79,7.5v5h-1.2V7.6c0-1.8-0.9-2.7-2.5-2.7c-1.8,0-2.9,1.1-2.9,3.1v4.5h-1.2V7.6
				c0-1.8-0.9-2.7-2.5-2.7c-1.7,0-2.9,1.1-2.9,3.1v4.5h-1.2V3.9H66v1.6c0.6-1,1.7-1.6,3.1-1.6c1.4,0,2.5,0.6,3,1.8
				C72.8,4.5,74,3.8,75.6,3.8 M75.6,3.5c-1.4,0-2.6,0.5-3.3,1.5c-0.6-1-1.7-1.5-3.1-1.5c-1.2,0-2.1,0.4-2.8,1.1V3.9V3.6H66h-1.1
				h-0.3v0.3v8.5v0.3h0.3h1.2h0.3v-0.3V7.9c0-1.7,1-2.8,2.6-2.8c1.4,0,2.2,0.8,2.2,2.4v4.8v0.3h0.3h1.2h0.3v-0.3V7.9
				c0-1.7,1-2.8,2.6-2.8c1.8,0,2.2,1.3,2.2,2.4v4.8v0.3h0.3H79h0.3v-0.3v-5C79.3,5,78,3.5,75.6,3.5L75.6,3.5z"></path>
		</g>
		<g>
			<path fill="#FFFFFF" d="M84.6,12.7c-2,0-3.3-1-3.3-2.6c0-1,0.4-2.6,3.4-2.6h2.6V7.1C87.3,5.7,86.5,5,85,5c-1,0-2.1,0.4-2.7,1
				l-0.1,0.1l-0.7-1.1l0.1-0.1c0.9-0.8,2.2-1.2,3.6-1.2c2.3,0,3.6,1.2,3.6,3.5v5.4h-1.4v-1C86.7,12.3,85.8,12.7,84.6,12.7z
				 M84.8,8.6c-1.4,0-2,0.5-2,1.4c0,0.9,0.8,1.5,2,1.5c1.2,0,2.1-0.6,2.6-1.6l0-1.2H84.8z"></path>
			<path fill="#FFFFFF" d="M85.2,3.8c2.2,0,3.5,1.1,3.5,3.3v5.3h-1.1v-1.3C87,12,86,12.5,84.6,12.5c-1.9,0-3.1-1-3.1-2.5
				c0-1.3,0.8-2.4,3.3-2.4h2.7V7.1c0-1.5-0.8-2.3-2.4-2.3c-1.1,0-2.1,0.4-2.8,1L81.7,5C82.5,4.2,83.8,3.8,85.2,3.8 M84.7,11.6
				c1.3,0,2.3-0.6,2.7-1.7V8.5h-2.7c-1.7,0-2.2,0.7-2.2,1.5C82.6,11,83.4,11.6,84.7,11.6 M85.2,3.5c-1.4,0-2.8,0.4-3.7,1.2l-0.2,0.2
				l0.1,0.2L81.9,6l0.2,0.3l0.3-0.2C83.1,5.5,84,5.1,85,5.1c1.4,0,2.1,0.7,2.1,2v0.2h-2.4c-3.2,0-3.6,1.9-3.6,2.7
				c0,1.7,1.3,2.8,3.4,2.8c1.1,0,2-0.3,2.6-0.9v0.5v0.3h0.3h1.1h0.3v-0.3V7.1C88.9,4.8,87.6,3.5,85.2,3.5L85.2,3.5z M84.7,11.3
				c-1.2,0-1.9-0.5-1.9-1.3c0-0.5,0.2-1.2,1.9-1.2h2.4v1C86.7,10.8,85.9,11.3,84.7,11.3L84.7,11.3z"></path>
		</g>
		<g>
			<path fill="#FFFFFF" d="M99.4,12.7c-2.6,0-4.4-1.9-4.4-4.5c0-2.6,1.9-4.5,4.4-4.5c1.3,0,2.4,0.5,3.1,1.4V0.2h1.5v12.3h-1.4v-1.4
				C101.8,12.1,100.7,12.7,99.4,12.7z M99.5,5c-1.8,0-3,1.3-3,3.2c0,1.9,1.2,3.2,3,3.2c1.8,0,3-1.3,3-3.2C102.5,6.3,101.3,5,99.5,5z
				"></path>
			<path fill="#FFFFFF" d="M103.8,0.4v12h-1.1v-1.7c-0.7,1.2-1.9,1.8-3.3,1.8c-2.4,0-4.3-1.8-4.3-4.4c0-2.6,1.8-4.3,4.3-4.3
				c1.4,0,2.5,0.6,3.2,1.7V0.4H103.8 M99.5,11.5c1.8,0,3.2-1.3,3.2-3.3s-1.4-3.3-3.2-3.3c-1.8,0-3.2,1.3-3.2,3.3
				S97.7,11.5,99.5,11.5 M104.1,0.1h-0.3h-1.2h-0.3v0.3v4.3c-0.8-0.7-1.8-1.1-2.9-1.1c-2.6,0-4.6,1.9-4.6,4.6c0,2.7,1.9,4.7,4.6,4.7
				c1.2,0,2.2-0.4,3-1.2v0.8v0.3h0.3h1.1h0.3v-0.3v-12V0.1L104.1,0.1z M99.5,11.2c-1.7,0-2.9-1.2-2.9-3c0-1.8,1.2-3,2.9-3
				c1.7,0,2.9,1.2,2.9,3C102.4,9.9,101.2,11.2,99.5,11.2L99.5,11.2z"></path>
		</g>
		<g>
			<path fill="#FFFFFF" d="M106.9,12.6V3.7h1.5v8.8H106.9z M107.6,2.2c-0.5,0-1-0.4-1-1c0-0.5,0.4-1,1-1s1,0.4,1,0.9
				C108.6,1.7,108.2,2.2,107.6,2.2z"></path>
			<path fill="#FFFFFF" d="M107.6,0.4c0.5,0,0.8,0.4,0.8,0.8c0,0.5-0.4,0.8-0.8,0.8c-0.5,0-0.8-0.4-0.8-0.8
				C106.8,0.8,107.1,0.4,107.6,0.4 M108.2,3.9v8.5H107V3.9H108.2 M107.6,0.1c-0.6,0-1.1,0.5-1.1,1.1c0,0.6,0.5,1.1,1.1,1.1
				c0.6,0,1.1-0.5,1.1-1.1C108.8,0.6,108.2,0.1,107.6,0.1L107.6,0.1z M108.5,3.6h-0.3H107h-0.3v0.3v8.5v0.3h0.3h1.2h0.3v-0.3V3.9
				V3.6L108.5,3.6z"></path>
		</g>
		<g>
			<path fill="#FFFFFF" d="M115,15.8c-1.7,0-3.2-0.5-4.1-1.4l-0.1-0.1l0.8-1.1l0.1,0.1c0.8,0.7,2,1.1,3.3,1.1c2.1,0,3-0.9,3-2.9
				v-0.6c-0.7,0.9-1.9,1.4-3.2,1.4c-2.6,0-4.4-1.8-4.4-4.3c0-2.5,1.9-4.3,4.4-4.3c1.4,0,2.5,0.5,3.2,1.4V3.7h1.4v7.7
				C119.5,14.4,118,15.8,115,15.8z M114.9,5c-1.8,0-3.1,1.2-3.1,3c0,1.8,1.3,3,3.1,3c1.8,0,3.1-1.2,3.1-3C118,6.2,116.8,5,114.9,5z"></path>
			<path fill="#FFFFFF" d="M114.8,3.8c1.4,0,2.7,0.6,3.4,1.7V3.9h1.1v7.5c0,2.9-1.4,4.3-4.3,4.3c-1.6,0-3.1-0.5-4-1.3l0.6-0.9
				c0.8,0.7,2,1.2,3.4,1.2c2.2,0,3.2-1,3.2-3.1v-1.1c-0.7,1.1-1.9,1.7-3.3,1.7c-2.4,0-4.3-1.7-4.3-4.2
				C110.5,5.5,112.4,3.8,114.8,3.8 M114.9,11.1c1.9,0,3.2-1.3,3.2-3.1c0-1.9-1.4-3.1-3.2-3.1c-1.9,0-3.2,1.3-3.2,3.1
				C111.7,9.8,113.1,11.1,114.9,11.1 M114.8,3.5c-2.7,0-4.6,1.9-4.6,4.4c0,2.6,1.9,4.5,4.6,4.5c1.2,0,2.3-0.4,3-1.1v0.3
				c0,2-0.9,2.8-2.9,2.8c-1.2,0-2.4-0.4-3.2-1.1l-0.3-0.2l-0.2,0.3l-0.6,0.9l-0.1,0.2l0.2,0.2c0.9,0.9,2.5,1.4,4.2,1.4
				c3,0,4.6-1.5,4.6-4.6V3.9V3.6h-0.3h-1.1h-0.3v0.3v0.8C117.1,3.9,116.1,3.5,114.8,3.5L114.8,3.5z M114.9,10.8
				c-1.7,0-2.9-1.2-2.9-2.8c0-1.7,1.2-2.8,2.9-2.8c1.7,0,2.9,1.2,2.9,2.8C117.9,9.6,116.7,10.8,114.9,10.8L114.9,10.8z"></path>
		</g>
		<g>
			<path fill="#FFFFFF" d="M122.4,12.6V3.7h1.5v8.8H122.4z M123.1,2.2c-0.5,0-1-0.4-1-1c0-0.5,0.4-1,1-1s1,0.4,1,0.9
				C124.1,1.7,123.7,2.2,123.1,2.2z"></path>
			<path fill="#FFFFFF" d="M123.1,0.4c0.5,0,0.8,0.4,0.8,0.8c0,0.5-0.4,0.8-0.8,0.8c-0.5,0-0.8-0.4-0.8-0.8
				C122.3,0.8,122.7,0.4,123.1,0.4 M123.7,3.9v8.5h-1.2V3.9H123.7 M123.1,0.1c-0.6,0-1.1,0.5-1.1,1.1c0,0.6,0.5,1.1,1.1,1.1
				c0.6,0,1.1-0.5,1.1-1.1C124.3,0.6,123.8,0.1,123.1,0.1L123.1,0.1z M124,3.6h-0.3h-1.2h-0.3v0.3v8.5v0.3h0.3h1.2h0.3v-0.3V3.9V3.6
				L124,3.6z"></path>
		</g>
		<g>
			<path fill="#FFFFFF" d="M129.6,12.7c-1.7,0-2.7-1-2.7-2.6V5h-1.5V3.7h1.5V1.9h1.5v1.9h2.6V5h-2.6V10c0,0.9,0.5,1.4,1.3,1.4
				c0.5,0,0.9-0.1,1.2-0.4l0.1-0.1l0.5,1.1l-0.1,0.1C131.1,12.4,130.4,12.7,129.6,12.7z"></path>
			<path fill="#FFFFFF" d="M128.3,2v1.9h2.6v1h-2.6V10c0,1,0.5,1.6,1.5,1.6c0.5,0,0.9-0.1,1.3-0.4l0.4,0.8c-0.5,0.4-1.1,0.6-1.8,0.6
				c-1.6,0-2.5-0.9-2.5-2.5V4.9h-1.5v-1h1.5V2H128.3 M128.6,1.7h-0.3h-1.2h-0.3V2v1.6h-1.2h-0.3v0.3v1v0.3h0.3h1.2V10
				c0,1.7,1,2.8,2.8,2.8c0.8,0,1.5-0.2,2-0.7l0.2-0.2l-0.1-0.2l-0.4-0.8l-0.2-0.4l-0.3,0.3c-0.3,0.2-0.6,0.4-1.1,0.4
				c-0.8,0-1.2-0.4-1.2-1.3V5.2h2.3h0.3V4.9v-1V3.6h-0.3h-2.3V2V1.7L128.6,1.7z"></path>
		</g>
		<g>
			<path fill="#FFFFFF" d="M135.9,12.7c-2,0-3.3-1-3.3-2.6c0-1,0.4-2.6,3.4-2.6h2.6V7.1c0-1.4-0.8-2.1-2.3-2.1c-1,0-2.1,0.4-2.7,1
				l-0.1,0.1l-0.7-1.1l0.1-0.1c0.9-0.8,2.2-1.2,3.6-1.2c2.3,0,3.6,1.2,3.6,3.5v5.4h-1.4v-1C138.1,12.3,137.1,12.7,135.9,12.7z
				 M136.1,8.6c-1.4,0-2,0.5-2,1.4c0,0.9,0.8,1.5,2,1.5c1.2,0,2.1-0.6,2.6-1.6l0-1.2H136.1z"></path>
			<path fill="#FFFFFF" d="M136.5,3.8c2.2,0,3.5,1.1,3.5,3.3v5.3h-1.1v-1.3c-0.5,0.9-1.5,1.4-2.9,1.4c-1.9,0-3.1-1-3.1-2.5
				c0-1.3,0.8-2.4,3.3-2.4h2.7V7.1c0-1.5-0.8-2.3-2.4-2.3c-1.1,0-2.1,0.4-2.8,1L133,5C133.9,4.2,135.2,3.8,136.5,3.8 M136.1,11.6
				c1.3,0,2.3-0.6,2.7-1.7V8.5h-2.7c-1.7,0-2.2,0.7-2.2,1.5C133.9,11,134.7,11.6,136.1,11.6 M136.5,3.5c-1.4,0-2.8,0.4-3.7,1.2
				l-0.2,0.2l0.1,0.2l0.5,0.9l0.2,0.3l0.3-0.2c0.7-0.6,1.7-0.9,2.6-0.9c1.4,0,2.1,0.7,2.1,2v0.2h-2.4c-3.2,0-3.6,1.9-3.6,2.7
				c0,1.7,1.3,2.8,3.4,2.8c1.1,0,2-0.3,2.6-0.9v0.5v0.3h0.3h1.1h0.3v-0.3V7.1C140.3,4.8,138.9,3.5,136.5,3.5L136.5,3.5z M136.1,11.3
				c-1.2,0-1.9-0.5-1.9-1.3c0-0.5,0.2-1.2,1.9-1.2h2.4v1C138.1,10.8,137.3,11.3,136.1,11.3L136.1,11.3z"></path>
		</g>
		<g>
			<rect x="143" y="0.2" fill="#FFFFFF" width="1.5" height="12.3"></rect>
			<path fill="#FFFFFF" d="M144.3,0.4v12h-1.2v-12H144.3 M144.6,0.1h-0.3h-1.2h-0.3v0.3v12v0.3h0.3h1.2h0.3v-0.3v-12V0.1L144.6,0.1z
				"></path>
		</g>
		<g>
			<path fill="#FFFFFF" d="M155.3,12.7c-2.4,0-3.8-1.4-3.8-3.8V3.7h1.5v5c0,1.7,0.8,2.6,2.4,2.6c1.7,0,2.8-1.1,2.8-2.9V3.7h1.5v8.8
				h-1.4v-1.2C157.5,12.2,156.5,12.7,155.3,12.7z M154.1,2.7l2.6-2.3h2l-3,2.3H154.1z"></path>
			<path fill="#FFFFFF" d="M158.3,0.6l-2.6,2h-1.1l2.2-2H158.3 M159.4,3.9v8.5h-1.1v-1.6c-0.6,1-1.7,1.6-3.1,1.6
				c-2.2,0-3.6-1.2-3.6-3.7v-5h1.2v4.8c0,1.8,0.9,2.7,2.6,2.7c1.8,0,2.9-1.2,2.9-3.1V3.9H159.4 M159.2,0.3h-0.9h-1.5h-0.1l-0.1,0.1
				l-2.2,2l-0.6,0.5h0.8h1.1h0.1l0.1-0.1l2.6-2L159.2,0.3L159.2,0.3z M159.7,3.6h-0.3h-1.2H158v0.3v4.5c0,1.8-1,2.8-2.6,2.8
				c-1.5,0-2.3-0.8-2.3-2.4V3.9V3.6h-0.3h-1.2h-0.3v0.3v5c0,2.5,1.5,4,3.9,4c1.1,0,2.1-0.4,2.8-1.1v0.7v0.3h0.3h1.1h0.3v-0.3V3.9
				V3.6L159.7,3.6z"></path>
		</g>
		<g>
			<path fill="#FFFFFF" d="M169.2,12.6v-5c0-1.7-0.8-2.6-2.4-2.6C165,5,164,6.1,164,7.9v4.6h-1.5V3.7h1.4V5c0.7-0.8,1.8-1.3,3.1-1.3
				c2.3,0,3.7,1.4,3.7,3.8v5.1H169.2z"></path>
			<path fill="#FFFFFF" d="M167,3.8c2.1,0,3.5,1.2,3.5,3.7v5h-1.2V7.6c0-1.8-0.9-2.7-2.6-2.7c-1.8,0-3,1.1-3,3.1v4.5h-1.2V3.9h1.1
				v1.6C164.4,4.4,165.5,3.8,167,3.8 M167,3.5c-1.2,0-2.2,0.4-2.9,1.1V3.9V3.6h-0.3h-1.1h-0.3v0.3v8.5v0.3h0.3h1.2h0.3v-0.3V7.9
				c0-1.7,1-2.8,2.7-2.8c1.5,0,2.3,0.8,2.3,2.4v4.8v0.3h0.3h1.2h0.3v-0.3v-5C170.8,5,169.4,3.5,167,3.5L167,3.5z"></path>
		</g>
		<g>
			<path fill="#FFFFFF" d="M173.5,12.6V3.7h1.5v8.8H173.5z M174.3,2.2c-0.5,0-1-0.4-1-1c0-0.5,0.4-1,1-1s1,0.4,1,0.9
				C175.3,1.7,174.8,2.2,174.3,2.2z"></path>
			<path fill="#FFFFFF" d="M174.3,0.4c0.5,0,0.8,0.4,0.8,0.8c0,0.5-0.4,0.8-0.8,0.8c-0.5,0-0.8-0.4-0.8-0.8
				C173.4,0.8,173.8,0.4,174.3,0.4 M174.8,3.9v8.5h-1.2V3.9H174.8 M174.3,0.1c-0.6,0-1.1,0.5-1.1,1.1c0,0.6,0.5,1.1,1.1,1.1
				c0.6,0,1.1-0.5,1.1-1.1C175.4,0.6,174.9,0.1,174.3,0.1L174.3,0.1z M175.1,3.6h-0.3h-1.2h-0.3v0.3v8.5v0.3h0.3h1.2h0.3v-0.3V3.9
				V3.6L175.1,3.6z"></path>
		</g>
		<g>
			<path fill="#FFFFFF" d="M181.6,12.7c-2.6,0-4.6-1.9-4.6-4.5c0-2.6,1.9-4.5,4.6-4.5c1.5,0,2.8,0.6,3.5,1.8l0.1,0.1L184,6.3
				l-0.1-0.1c-0.5-0.8-1.4-1.2-2.4-1.2c-1.8,0-3.1,1.3-3.1,3.2c0,1.9,1.3,3.2,3.1,3.2c1,0,1.8-0.4,2.4-1.2L184,10l1.1,0.7l-0.1,0.1
				C184.4,12,183.1,12.7,181.6,12.7z"></path>
			<path fill="#FFFFFF" d="M181.6,3.8c1.4,0,2.7,0.6,3.3,1.7l-0.9,0.6c-0.6-0.9-1.5-1.3-2.5-1.3c-1.9,0-3.2,1.3-3.2,3.3
				c0,2,1.4,3.3,3.2,3.3c1,0,1.9-0.4,2.5-1.3l0.9,0.6c-0.7,1.1-1.9,1.7-3.3,1.7c-2.5,0-4.4-1.8-4.4-4.4S179,3.8,181.6,3.8
				 M181.6,3.5c-2.7,0-4.7,1.9-4.7,4.6c0,2.7,2,4.7,4.7,4.7c1.6,0,2.9-0.7,3.6-1.8l0.2-0.2l-0.2-0.2l-0.9-0.6L184,9.8l-0.2,0.2
				c-0.6,0.9-1.6,1.1-2.2,1.1c-1.8,0-2.9-1.2-2.9-3c0-1.8,1.2-3,2.9-3c0.9,0,1.7,0.4,2.2,1.1l0.2,0.2l0.2-0.2l0.9-0.6l0.2-0.2
				l-0.1-0.2C184.5,4.2,183.2,3.5,181.6,3.5L181.6,3.5z"></path>
		</g>
		<g>
			<path fill="#FFFFFF" d="M189.6,12.7c-2,0-3.3-1-3.3-2.6c0-1,0.4-2.6,3.4-2.6h2.6V7.1c0-1.4-0.8-2.1-2.3-2.1c-1,0-2.1,0.4-2.7,1
				l-0.1,0.1l-0.7-1.1l0.1-0.1c0.9-0.8,2.2-1.2,3.6-1.2c2.3,0,3.6,1.2,3.6,3.5v5.4h-1.4v-1C191.8,12.3,190.8,12.7,189.6,12.7z
				 M189.8,8.6c-1.4,0-2,0.5-2,1.4c0,0.9,0.8,1.5,2,1.5c1.2,0,2.1-0.6,2.6-1.6l0-1.2H189.8z"></path>
			<path fill="#FFFFFF" d="M190.2,3.8c2.2,0,3.5,1.1,3.5,3.3v5.3h-1.1v-1.3c-0.5,0.9-1.5,1.4-2.9,1.4c-1.9,0-3.1-1-3.1-2.5
				c0-1.3,0.8-2.4,3.3-2.4h2.7V7.1c0-1.5-0.8-2.3-2.4-2.3c-1.1,0-2.1,0.4-2.8,1L186.7,5C187.6,4.2,188.8,3.8,190.2,3.8 M189.8,11.6
				c1.3,0,2.3-0.6,2.7-1.7V8.5h-2.7c-1.7,0-2.2,0.7-2.2,1.5C187.6,11,188.4,11.6,189.8,11.6 M190.2,3.5c-1.4,0-2.8,0.4-3.7,1.2
				l-0.2,0.2l0.1,0.2L187,6l0.2,0.3l0.3-0.2c0.7-0.6,1.6-0.9,2.6-0.9c1.4,0,2.1,0.7,2.1,2v0.2h-2.4c-3.2,0-3.6,1.9-3.6,2.7
				c0,1.7,1.3,2.8,3.4,2.8c1.1,0,2-0.3,2.6-0.9v0.5v0.3h0.3h1.1h0.3v-0.3V7.1C193.9,4.8,192.6,3.5,190.2,3.5L190.2,3.5z M189.8,11.3
				c-1.2,0-1.9-0.5-1.9-1.3c0-0.5,0.2-1.2,1.9-1.2h2.4v1C191.8,10.8,190.9,11.3,189.8,11.3L189.8,11.3z"></path>
		</g>
		<g>
			<path fill="#FFFFFF" d="M4.6,32.2c-2.6,0-4.4-1.9-4.4-4.5c0-2.6,1.9-4.5,4.4-4.5c1.3,0,2.4,0.5,3.1,1.4v-4.8h1.5v12.3H7.7v-1.4
				C7,31.6,5.9,32.2,4.6,32.2z M4.7,24.5c-1.8,0-3,1.3-3,3.2s1.2,3.2,3,3.2c1.8,0,3-1.3,3-3.2S6.4,24.5,4.7,24.5z"></path>
			<path fill="#FFFFFF" d="M9,19.9v12H7.9v-1.7C7.2,31.4,6,32,4.6,32c-2.4,0-4.3-1.8-4.3-4.4c0-2.6,1.8-4.3,4.3-4.3
				c1.4,0,2.5,0.6,3.2,1.7v-5.1H9 M4.7,31c1.8,0,3.2-1.3,3.2-3.3s-1.4-3.3-3.2-3.3c-1.8,0-3.2,1.3-3.2,3.3S2.8,31,4.7,31 M9.3,19.6
				H9H7.8H7.5v0.3v4.3C6.8,23.4,5.7,23,4.6,23C1.9,23,0,25,0,27.6c0,2.7,1.9,4.7,4.6,4.7c1.2,0,2.2-0.4,3-1.2v0.8v0.3h0.3H9h0.3
				v-0.3v-12V19.6L9.3,19.6z M4.7,30.7c-1.7,0-2.9-1.2-2.9-3c0-1.8,1.2-3,2.9-3c1.7,0,2.9,1.2,2.9,3C7.5,29.4,6.3,30.7,4.7,30.7
				L4.7,30.7z"></path>
		</g>
		<g>
			<path fill="#FFFFFF" d="M15.8,32.2c-2.7,0-4.6-1.9-4.6-4.5c0-2.6,1.8-4.5,4.3-4.5c2.5,0,4.3,1.8,4.3,4.5c0,0,0,0.3,0,0.4v0.2
				h-7.1c0.2,1.6,1.5,2.7,3.2,2.7c1,0,1.9-0.4,2.5-1.1l0.1-0.1l0.8,1l-0.1,0.1C18.4,31.6,17.2,32.2,15.8,32.2z M18.4,27
				c-0.2-1.5-1.3-2.5-2.9-2.5c-1.5,0-2.7,1-2.9,2.5H18.4z"></path>
			<path fill="#FFFFFF" d="M15.5,23.3c2.4,0,4.1,1.8,4.1,4.3c0,0.1,0,0.2,0,0.4h-7.1c0.1,1.8,1.5,3,3.4,3c1,0,2-0.4,2.6-1.1l0.7,0.7
				c-0.8,0.9-1.9,1.4-3.3,1.4c-2.7,0-4.5-1.8-4.5-4.4S13.1,23.3,15.5,23.3 M12.5,27.1h6.1c-0.1-1.7-1.4-2.8-3-2.8
				C13.8,24.3,12.6,25.5,12.5,27.1 M15.5,23C12.9,23,11,25,11,27.6c0,2.7,2,4.7,4.8,4.7c1.5,0,2.7-0.5,3.5-1.5l0.2-0.2l-0.2-0.2
				l-0.7-0.7l-0.2-0.3l-0.2,0.3c-0.6,0.7-1.4,1-2.4,1c-1.6,0-2.8-0.9-3-2.4h6.8h0.3V28c0-0.1,0-0.1,0-0.2c0-0.1,0-0.1,0-0.2
				C19.9,25,18.1,23,15.5,23L15.5,23z M12.8,26.8c0.3-1.4,1.3-2.2,2.7-2.2c1.4,0,2.4,0.9,2.7,2.2H12.8L12.8,26.8z"></path>
		</g>
		<g>
			<rect x="21.8" y="19.7" fill="#FFFFFF" width="1.5" height="12.3"></rect>
			<path fill="#FFFFFF" d="M23.1,19.9v12H22v-12H23.1 M23.4,19.6h-0.3H22h-0.3v0.3v12v0.3H22h1.2h0.3v-0.3v-12V19.6L23.4,19.6z"></path>
		</g>
		<g>
			<polygon fill="#FFFFFF" points="30.7,32.1 30.7,20.4 38.8,20.4 38.8,21.7 32.2,21.7 32.2,25.5 38.1,25.5 38.1,26.8 32.2,26.8 
				32.2,30.7 39.1,30.7 39.1,32.1 			"></polygon>
			<path fill="#FFFFFF" d="M38.7,20.6v1h-6.6v4H38v1h-5.9v4.2h6.8v1h-8V20.6H38.7 M39,20.3h-0.3h-7.8h-0.3v0.3v11.4v0.3h0.3h8h0.3
				v-0.3v-1v-0.3h-0.3h-6.5V27H38h0.3v-0.3v-1v-0.3H38h-5.6v-3.4h6.3H39v-0.3v-1V20.3L39,20.3z"></path>
		</g>
		<g>
			<path fill="#FFFFFF" d="M43.7,32.2c-1.4,0-2.8-0.4-3.6-1.1L40,31l0.7-1.2l0.1,0.1c0.7,0.6,1.9,0.9,2.9,0.9c1.4,0,2.1-0.4,2.1-1.2
				c0-0.9-1-1.1-2.2-1.3c-1.5-0.3-3.3-0.6-3.3-2.6c0-1.6,1.4-2.6,3.5-2.6c1.2,0,2.4,0.3,3.1,0.8l0.1,0.1l-0.6,1.2l-0.1-0.1
				c-0.7-0.5-1.5-0.7-2.4-0.7c-1.3,0-2.1,0.5-2.1,1.3c0,0.9,1.1,1.1,2.3,1.3c1.5,0.3,3.3,0.6,3.3,2.5C47.3,31.2,45.9,32.2,43.7,32.2
				z"></path>
			<path fill="#FFFFFF" d="M43.9,23.3c1.1,0,2.3,0.3,3,0.8L46.4,25c-0.7-0.5-1.6-0.7-2.5-0.7c-1.5,0-2.2,0.6-2.2,1.4
				c0,2.3,5.5,0.6,5.5,3.8c0,1.5-1.3,2.4-3.5,2.4c-1.4,0-2.8-0.5-3.5-1.1l0.5-0.9c0.7,0.5,1.8,1,3,1c1.6,0,2.3-0.6,2.3-1.4
				c0-2.2-5.5-0.5-5.5-3.8C40.5,24.4,41.7,23.3,43.9,23.3 M43.9,23c-2.2,0-3.7,1.1-3.7,2.7c0,2.1,1.9,2.5,3.4,2.7
				c1.3,0.2,2.1,0.4,2.1,1.1c0,0.7-0.7,1.1-2,1.1c-1,0-2.2-0.4-2.9-0.9l-0.3-0.2l-0.2,0.3l-0.5,0.9L39.8,31l0.2,0.2
				c0.8,0.7,2.3,1.1,3.7,1.1c2.4,0,3.8-1,3.8-2.7c0-2-1.9-2.4-3.4-2.7c-1.3-0.2-2.2-0.4-2.2-1.2c0-1,1.2-1.1,1.9-1.1
				c0.9,0,1.7,0.2,2.3,0.7l0.3,0.2l0.2-0.3l0.5-0.9l0.1-0.2l-0.2-0.2C46.3,23.3,45.1,23,43.9,23L43.9,23z"></path>
		</g>
		<g>
			<path fill="#FFFFFF" d="M52,32.2c-1.7,0-2.7-1-2.7-2.6v-5h-1.5v-1.3h1.5v-1.9h1.5v1.9h2.6v1.3h-2.6v4.9c0,0.9,0.5,1.4,1.3,1.4
				c0.5,0,0.9-0.1,1.2-0.4l0.1-0.1l0.5,1.1l-0.1,0.1C53.5,31.9,52.8,32.2,52,32.2z"></path>
			<path fill="#FFFFFF" d="M50.7,21.5v1.9h2.6v1h-2.6v5.1c0,1,0.5,1.6,1.5,1.6c0.5,0,0.9-0.1,1.3-0.4l0.4,0.8
				C53.4,31.8,52.7,32,52,32c-1.6,0-2.5-0.9-2.5-2.5v-5.2H48v-1h1.5v-1.9H50.7 M51,21.2h-0.3h-1.2h-0.3v0.3v1.6H48h-0.3v0.3v1v0.3
				H48h1.2v4.9c0,1.7,1,2.8,2.8,2.8c0.8,0,1.5-0.2,2-0.7l0.2-0.2l-0.1-0.2l-0.4-0.8l-0.2-0.4l-0.3,0.3c-0.3,0.2-0.6,0.4-1.1,0.4
				c-0.8,0-1.2-0.4-1.2-1.3v-4.8h2.3h0.3v-0.3v-1v-0.3h-0.3H51v-1.6V21.2L51,21.2z"></path>
		</g>
		<g>
			<path fill="#FFFFFF" d="M58.3,32.2c-2,0-3.3-1-3.3-2.6c0-1,0.4-2.6,3.4-2.6h2.6v-0.4c0-1.4-0.8-2.1-2.3-2.1c-1,0-2.1,0.4-2.7,1
				l-0.1,0.1l-0.7-1.1l0.1-0.1c0.9-0.8,2.2-1.2,3.6-1.2c2.3,0,3.6,1.2,3.6,3.5v5.4h-1.4v-1C60.5,31.8,59.5,32.2,58.3,32.2z
				 M58.5,28.1c-1.4,0-2,0.5-2,1.4c0,0.9,0.8,1.5,2,1.5c1.2,0,2.1-0.6,2.6-1.6l0-1.2H58.5z"></path>
			<path fill="#FFFFFF" d="M58.9,23.3c2.2,0,3.5,1.1,3.5,3.3v5.3h-1.1v-1.3c-0.5,0.9-1.5,1.4-2.9,1.4c-1.9,0-3.1-1-3.1-2.5
				c0-1.3,0.8-2.4,3.3-2.4h2.7v-0.5c0-1.5-0.8-2.3-2.4-2.3c-1.1,0-2.1,0.4-2.8,1l-0.5-0.9C56.3,23.7,57.6,23.3,58.9,23.3 M58.5,31.1
				c1.3,0,2.3-0.6,2.7-1.7V28h-2.7c-1.7,0-2.2,0.7-2.2,1.5C56.3,30.5,57.1,31.1,58.5,31.1 M58.9,23c-1.4,0-2.8,0.4-3.7,1.2L55,24.4
				l0.1,0.2l0.5,0.9l0.2,0.3l0.3-0.2c0.7-0.6,1.7-0.9,2.6-0.9c1.4,0,2.1,0.7,2.1,2v0.2h-2.4c-3.2,0-3.6,1.9-3.6,2.7
				c0,1.7,1.3,2.8,3.4,2.8c1.1,0,2-0.3,2.6-0.9v0.5v0.3h0.3h1.1h0.3v-0.3v-5.3C62.7,24.3,61.3,23,58.9,23L58.9,23z M58.5,30.8
				c-1.2,0-1.9-0.5-1.9-1.3c0-0.5,0.2-1.2,1.9-1.2h2.4v1C60.5,30.3,59.7,30.8,58.5,30.8L58.5,30.8z"></path>
		</g>
		<g>
			<path fill="#FFFFFF" d="M68.9,32.2c-2.6,0-4.4-1.9-4.4-4.5c0-2.6,1.9-4.5,4.4-4.5c1.3,0,2.4,0.5,3.1,1.4v-4.8h1.5v12.3h-1.4v-1.4
				C71.3,31.6,70.2,32.2,68.9,32.2z M69,24.5c-1.8,0-3,1.3-3,3.2s1.2,3.2,3,3.2c1.8,0,3-1.3,3-3.2S70.8,24.5,69,24.5z"></path>
			<path fill="#FFFFFF" d="M73.3,19.9v12h-1.1v-1.7c-0.7,1.2-1.9,1.8-3.3,1.8c-2.4,0-4.3-1.8-4.3-4.4c0-2.6,1.8-4.3,4.3-4.3
				c1.4,0,2.5,0.6,3.2,1.7v-5.1H73.3 M69,31c1.8,0,3.2-1.3,3.2-3.3s-1.4-3.3-3.2-3.3c-1.8,0-3.2,1.3-3.2,3.3S67.2,31,69,31
				 M73.6,19.6h-0.3h-1.2h-0.3v0.3v4.3c-0.8-0.7-1.8-1.1-2.9-1.1c-2.6,0-4.6,1.9-4.6,4.6c0,2.7,1.9,4.7,4.6,4.7c1.2,0,2.2-0.4,3-1.2
				v0.8v0.3h0.3h1.1h0.3v-0.3v-12V19.6L73.6,19.6z M69,30.7c-1.7,0-2.9-1.2-2.9-3c0-1.8,1.2-3,2.9-3c1.7,0,2.9,1.2,2.9,3
				C71.9,29.4,70.7,30.7,69,30.7L69,30.7z"></path>
		</g>
		<g>
			<path fill="#FFFFFF" d="M80,32.2c-2.6,0-4.5-1.9-4.5-4.5c0-2.6,1.9-4.5,4.5-4.5c2.6,0,4.5,1.9,4.5,4.5
				C84.5,30.3,82.6,32.2,80,32.2z M80,24.5c-1.8,0-3,1.3-3,3.2s1.2,3.2,3,3.2c1.8,0,3-1.3,3-3.2S81.8,24.5,80,24.5z"></path>
			<path fill="#FFFFFF" d="M80,23.3c2.5,0,4.3,1.8,4.3,4.3S82.5,32,80,32c-2.5,0-4.4-1.8-4.4-4.4S77.5,23.3,80,23.3 M80,31
				c1.8,0,3.2-1.3,3.2-3.3s-1.3-3.3-3.2-3.3c-1.8,0-3.2,1.3-3.2,3.3S78.2,31,80,31 M80,23c-2.7,0-4.7,1.9-4.7,4.6
				c0,2.7,2,4.7,4.7,4.7c2.7,0,4.6-2,4.6-4.7C84.7,25,82.7,23,80,23L80,23z M80,30.7c-1.7,0-2.9-1.2-2.9-3c0-1.8,1.2-3,2.9-3
				c1.7,0,2.9,1.2,2.9,3C82.9,29.4,81.7,30.7,80,30.7L80,30.7z"></path>
		</g>
		<g>
			<path fill="#FFFFFF" d="M91.1,32.1V20.4h4.4c3,0,4.8,1.5,4.8,4c0,2.5-1.8,4-4.8,4h-2.9v3.6H91.1z M95.5,27.1
				c2.1,0,3.3-0.9,3.3-2.7c0-1.8-1.2-2.7-3.3-2.7h-2.9v5.4H95.5z"></path>
			<path fill="#FFFFFF" d="M95.5,20.6c2.9,0,4.6,1.5,4.6,3.9c0,2.4-1.8,3.9-4.6,3.9h-3.1v3.6h-1.2V20.6H95.5 M92.4,27.3h3
				c2.3,0,3.5-1,3.5-2.8c0-1.8-1.2-2.9-3.5-2.9h-3V27.3 M95.5,20.3h-4.3h-0.3v0.3v11.4v0.3h0.3h1.2h0.3v-0.3v-3.3h2.8
				c3.1,0,4.9-1.6,4.9-4.2C100.4,21.9,98.6,20.3,95.5,20.3L95.5,20.3z M92.7,21.9h2.7c1.4,0,3.2,0.4,3.2,2.6c0,2.1-1.7,2.5-3.2,2.5
				h-2.7V21.9L92.7,21.9z"></path>
		</g>
		<g>
			<path fill="#FFFFFF" d="M106.1,32.2c-2.7,0-4.6-1.9-4.6-4.5c0-2.6,1.8-4.5,4.3-4.5c2.5,0,4.3,1.8,4.3,4.5c0,0,0,0.3,0,0.4v0.2
				h-7.1c0.2,1.6,1.5,2.7,3.2,2.7c1,0,1.9-0.4,2.5-1.1l0.1-0.1l0.8,1l-0.1,0.1C108.7,31.6,107.5,32.2,106.1,32.2z M108.6,27
				c-0.2-1.5-1.3-2.5-2.9-2.5c-1.5,0-2.7,1-2.9,2.5H108.6z"></path>
			<path fill="#FFFFFF" d="M105.8,23.3c2.4,0,4.1,1.8,4.1,4.3c0,0.1,0,0.2,0,0.4h-7.1c0.1,1.8,1.5,3,3.4,3c1,0,2-0.4,2.6-1.1
				l0.7,0.7c-0.8,0.9-1.9,1.4-3.3,1.4c-2.7,0-4.5-1.8-4.5-4.4S103.4,23.3,105.8,23.3 M102.8,27.1h6.1c-0.1-1.7-1.4-2.8-3-2.8
				C104.1,24.3,102.9,25.5,102.8,27.1 M105.8,23c-2.6,0-4.5,1.9-4.5,4.6c0,2.7,2,4.7,4.8,4.7c1.5,0,2.7-0.5,3.5-1.5l0.2-0.2
				l-0.2-0.2l-0.7-0.7l-0.2-0.3l-0.2,0.3c-0.6,0.7-1.4,1-2.4,1c-1.6,0-2.8-0.9-3-2.4h6.8h0.3V28c0-0.1,0-0.1,0-0.2
				c0-0.1,0-0.1,0-0.2C110.2,25,108.3,23,105.8,23L105.8,23z M103.1,26.8c0.3-1.4,1.3-2.2,2.7-2.2c1.4,0,2.4,0.9,2.7,2.2H103.1
				L103.1,26.8z"></path>
		</g>
		<g>
			<path fill="#FFFFFF" d="M112.1,32.1v-8.8h1.4v1.3c0.6-0.9,1.7-1.3,3-1.3h0.2v1.4h-0.2c-0.1,0-0.3,0-0.3,0c-1.7,0-2.7,1.1-2.7,3
				v4.5H112.1z"></path>
			<path fill="#FFFFFF" d="M116.6,23.3v1.1c-0.1,0-0.2,0-0.3,0c-1.8,0-2.9,1.1-2.9,3.2v4.4h-1.2v-8.5h1.1v1.7
				C113.9,23.9,115,23.3,116.6,23.3 M116.9,23h-0.3c-1.3,0-2.2,0.4-2.9,1.1v-0.7v-0.3h-0.3h-1.1H112v0.3v8.5v0.3h0.3h1.2h0.3v-0.3
				v-4.4c0-1.8,0.9-2.9,2.6-2.9c0,0,0.1,0,0.1,0c0.1,0,0.1,0,0.2,0h0.3v-0.3v-1.1V23L116.9,23z"></path>
		</g>
		<g>
			<path fill="#FFFFFF" d="M122.3,32.2c-2.4,0-3.8-1.4-3.8-3.8v-5.1h1.5v5c0,1.7,0.8,2.6,2.4,2.6c1.7,0,2.8-1.1,2.8-2.9v-4.6h1.5
				v8.8h-1.4v-1.2C124.6,31.7,123.5,32.2,122.3,32.2z"></path>
			<path fill="#FFFFFF" d="M126.5,23.4v8.5h-1.1v-1.6c-0.6,1-1.7,1.6-3.1,1.6c-2.2,0-3.6-1.2-3.6-3.7v-5h1.2v4.8
				c0,1.8,0.9,2.7,2.6,2.7c1.8,0,2.9-1.2,2.9-3.1v-4.5H126.5 M126.8,23.1h-0.3h-1.2H125v0.3v4.5c0,1.8-1,2.8-2.6,2.8
				c-1.5,0-2.3-0.8-2.3-2.4v-4.8v-0.3h-0.3h-1.2h-0.3v0.3v5c0,2.5,1.5,4,3.9,4c1.1,0,2.1-0.4,2.8-1.1v0.7v0.3h0.3h1.1h0.3v-0.3v-8.5
				V23.1L126.8,23.1z"></path>
		</g>
		<g>
			<path fill="#FFFFFF" d="M132.1,32.2c-2,0-3.3-1-3.3-2.6c0-1,0.4-2.6,3.4-2.6h2.6v-0.4c0-1.4-0.8-2.1-2.3-2.1c-1,0-2.1,0.4-2.7,1
				l-0.1,0.1l-0.7-1.1l0.1-0.1c0.9-0.8,2.2-1.2,3.6-1.2c2.3,0,3.6,1.2,3.6,3.5v5.4h-1.4v-1C134.3,31.8,133.3,32.2,132.1,32.2z
				 M132.3,28.1c-1.4,0-2,0.5-2,1.4c0,0.9,0.8,1.5,2,1.5c1.2,0,2.1-0.6,2.6-1.6l0-1.2H132.3z"></path>
			<path fill="#FFFFFF" d="M132.7,23.3c2.2,0,3.5,1.1,3.5,3.3v5.3h-1.1v-1.3c-0.5,0.9-1.5,1.4-2.9,1.4c-1.9,0-3.1-1-3.1-2.5
				c0-1.3,0.8-2.4,3.3-2.4h2.7v-0.5c0-1.5-0.8-2.3-2.4-2.3c-1.1,0-2.1,0.4-2.8,1l-0.5-0.9C130.1,23.7,131.4,23.3,132.7,23.3
				 M132.3,31.1c1.3,0,2.3-0.6,2.7-1.7V28h-2.7c-1.7,0-2.2,0.7-2.2,1.5C130.2,30.5,130.9,31.1,132.3,31.1 M132.7,23
				c-1.4,0-2.8,0.4-3.7,1.2l-0.2,0.2l0.1,0.2l0.5,0.9l0.2,0.3l0.3-0.2c0.7-0.6,1.6-0.9,2.6-0.9c1.4,0,2.1,0.7,2.1,2v0.2h-2.4
				c-3.2,0-3.6,1.9-3.6,2.7c0,1.7,1.3,2.8,3.4,2.8c1.1,0,2-0.3,2.6-0.9v0.5v0.3h0.3h1.1h0.3v-0.3v-5.3C136.5,24.3,135.1,23,132.7,23
				L132.7,23z M132.3,30.8c-1.2,0-1.9-0.5-1.9-1.3c0-0.5,0.2-1.2,1.9-1.2h2.4v1C134.3,30.3,133.5,30.8,132.3,30.8L132.3,30.8z"></path>
		</g>
		<g>
			<path fill="#FFFFFF" d="M145.9,32.1v-5c0-1.7-0.8-2.6-2.4-2.6c-1.8,0-2.8,1.1-2.8,2.9v4.6h-1.5v-8.8h1.4v1.2
				c0.7-0.8,1.8-1.3,3.1-1.3c2.3,0,3.7,1.4,3.7,3.8v5.1H145.9z"></path>
			<path fill="#FFFFFF" d="M143.7,23.3c2.1,0,3.5,1.2,3.5,3.7v5H146v-4.8c0-1.8-0.9-2.7-2.6-2.7c-1.8,0-3,1.1-3,3.1v4.5h-1.2v-8.5
				h1.1V25C141,23.9,142.2,23.3,143.7,23.3 M143.7,23c-1.2,0-2.2,0.4-2.9,1.1v-0.7v-0.3h-0.3h-1.1H139v0.3v8.5v0.3h0.3h1.2h0.3v-0.3
				v-4.5c0-1.7,1-2.8,2.7-2.8c1.5,0,2.3,0.8,2.3,2.4v4.8v0.3h0.3h1.2h0.3v-0.3v-5C147.5,24.5,146.1,23,143.7,23L143.7,23z"></path>
		</g>
		<g>
			<path fill="#FFFFFF" d="M153.8,32.2c-2.6,0-4.5-1.9-4.5-4.5c0-2.6,1.9-4.5,4.5-4.5c2.6,0,4.5,1.9,4.5,4.5
				C158.3,30.3,156.4,32.2,153.8,32.2z M153.8,24.5c-1.8,0-3,1.3-3,3.2s1.2,3.2,3,3.2c1.8,0,3-1.3,3-3.2S155.6,24.5,153.8,24.5z"></path>
			<path fill="#FFFFFF" d="M153.8,23.3c2.5,0,4.3,1.8,4.3,4.3s-1.8,4.4-4.3,4.4c-2.5,0-4.4-1.8-4.4-4.4S151.3,23.3,153.8,23.3
				 M153.8,31c1.8,0,3.2-1.3,3.2-3.3s-1.3-3.3-3.2-3.3c-1.8,0-3.2,1.3-3.2,3.3S152,31,153.8,31 M153.8,23c-2.7,0-4.7,1.9-4.7,4.6
				c0,2.7,2,4.7,4.7,4.7c2.7,0,4.6-2,4.6-4.7C158.5,25,156.5,23,153.8,23L153.8,23z M153.8,30.7c-1.7,0-2.9-1.2-2.9-3
				c0-1.8,1.2-3,2.9-3c1.7,0,2.9,1.2,2.9,3C156.7,29.4,155.5,30.7,153.8,30.7L153.8,30.7z"></path>
		</g>
	</g>
</g>
</svg>