<?xml version="1.0" encoding="UTF-8" standalone="no"?>
<svg
   xmlns:dc="http://purl.org/dc/elements/1.1/"
   xmlns:cc="http://creativecommons.org/ns#"
   xmlns:rdf="http://www.w3.org/1999/02/22-rdf-syntax-ns#"
   xmlns:svg="http://www.w3.org/2000/svg"
   xmlns="http://www.w3.org/2000/svg"
   version="1.1"
   id="svg2"
   viewBox="0 0 140 38.000001"
   height="38"
   width="140">
  <defs
     id="defs4" />
  <metadata
     id="metadata7">
    <rdf:RDF>
      <cc:Work
         rdf:about="">
        <dc:format>image/svg+xml</dc:format>
        <dc:type
           rdf:resource="http://purl.org/dc/dcmitype/StillImage" />
        <dc:title></dc:title>
      </cc:Work>
    </rdf:RDF>
  </metadata>
  <g
     transform="translate(0,-1014.3622)"
     id="layer1">
    <g
       id="flowRoot3336"
       style="font-style:normal;font-weight:normal;font-size:40px;line-height:125%;font-family:sans-serif;letter-spacing:0px;word-spacing:0px;fill:#000000;fill-opacity:1;stroke:none;stroke-width:1px;stroke-linecap:butt;stroke-linejoin:miter;stroke-opacity:1">
      <rect
         y="430.07932"
         x="355.86206"
         height="142.72543"
         width="274.03284"
         id="rect4278"
         style="fill:#4d4d4d" />
      <path
         d="m 280.47758,241.386 q 0,0.12 -0.12,1.68 l -16.28,0 q 0.44,2 2.08,3.16 1.64,1.16 4.08,1.16 1.68,0 2.96,-0.48 1.32,-0.52 2.44,-1.6 l 3.32,3.6 q -3.04,3.48 -8.88,3.48 -3.64,0 -6.44,-1.4 -2.8,-1.44 -4.32,-3.96 -1.52,-2.52 -1.52,-5.72 0,-3.16 1.48,-5.68 1.52,-2.56 4.12,-3.96 2.64,-1.44 5.88,-1.44 3.16,0 5.72,1.36 2.56,1.36 4,3.92 1.48,2.52 1.48,5.88 z m -11.16,-6.44 q -2.12,0 -3.56,1.2 -1.44,1.2 -1.76,3.28 l 10.6,0 q -0.32,-2.04 -1.76,-3.24 -1.44,-1.24 -3.52,-1.24 z m -24.77813,-4.72 q 3,0 5.44,1.4 2.48,1.36 3.88,3.88 1.4,2.48 1.4,5.8 0,3.32 -1.4,5.84 -1.4,2.48 -3.88,3.88 -2.44,1.36 -5.44,1.36 -4.12,0 -6.48,-2.6 l 0,10.04 -6.24,0 0,-29.28 5.96,0 0,2.48 q 2.32,-2.8 6.76,-2.8 z m -1.08,17.04 q 2.4,0 3.92,-1.6 1.56,-1.64 1.56,-4.36 0,-2.72 -1.56,-4.32 -1.52,-1.64 -3.92,-1.64 -2.4,0 -3.96,1.64 -1.52,1.6 -1.52,4.32 0,2.72 1.52,4.36 1.56,1.6 3.96,1.6 z m -19.67062,5.12 q -1.64,0 -2.76,-1.12 -1.12,-1.12 -1.12,-2.8 0,-1.72 1.12,-2.76 1.12,-1.08 2.76,-1.08 1.64,0 2.76,1.08 1.12,1.04 1.12,2.76 0,1.68 -1.12,2.8 -1.12,1.12 -2.76,1.12 z m -16.90563,-22.16 q 3,0 5.44,1.4 2.48,1.36 3.88,3.88 1.4,2.48 1.4,5.8 0,3.32 -1.4,5.84 -1.4,2.48 -3.88,3.88 -2.44,1.36 -5.44,1.36 -4.44,0 -6.76,-2.8 l 0,2.48 -5.96,0 0,-29.68 6.24,0 0,10.44 q 2.36,-2.6 6.48,-2.6 z m -1.08,17.04 q 2.4,0 3.92,-1.6 1.56,-1.64 1.56,-4.36 0,-2.72 -1.56,-4.32 -1.52,-1.64 -3.92,-1.64 -2.4,0 -3.96,1.64 -1.52,1.6 -1.52,4.32 0,2.72 1.52,4.36 1.56,1.6 3.96,1.6 z m -27.57187,5.12 q -3.4,0 -6.12,-1.4 -2.68,-1.44 -4.2,-3.96 -1.52,-2.52 -1.52,-5.72 0,-3.2 1.52,-5.72 1.52,-2.52 4.2,-3.92 2.72,-1.44 6.12,-1.44 3.4,0 6.08,1.44 2.68,1.4 4.2,3.92 1.52,2.52 1.52,5.72 0,3.2 -1.52,5.72 -1.52,2.52 -4.2,3.96 -2.68,1.4 -6.08,1.4 z m 0,-5.12 q 2.4,0 3.92,-1.6 1.56,-1.64 1.56,-4.36 0,-2.72 -1.56,-4.32 -1.52,-1.64 -3.92,-1.64 -2.4,0 -3.96,1.64 -1.56,1.6 -1.56,4.32 0,2.72 1.56,4.36 1.56,1.6 3.96,1.6 z m -16.00875,-16.72 0,17.92 q 0,5.92 -3.08,8.8 -3.08,2.88 -9,2.88 -3.12,0 -5.92,-0.76 -2.8,-0.76 -4.64,-2.2 l 2.48,-4.48 q 1.36,1.12 3.44,1.76 2.08,0.68 4.16,0.68 3.24,0 4.76,-1.48 1.56,-1.44 1.56,-4.4 l 0,-0.92 q -2.44,2.68 -6.8,2.68 -2.96,0 -5.44,-1.28 -2.44,-1.32 -3.88,-3.68 -1.44,-2.36 -1.44,-5.44 0,-3.08 1.44,-5.44 1.44,-2.36 3.88,-3.64 2.48,-1.32 5.44,-1.32 4.68,0 7.12,3.08 l 0,-2.76 5.92,0 z m -11.8,15.36 q 2.48,0 4.04,-1.44 1.6,-1.48 1.6,-3.84 0,-2.36 -1.6,-3.8 -1.56,-1.48 -4.04,-1.48 -2.48,0 -4.08,1.48 -1.6,1.44 -1.6,3.8 0,2.36 1.6,3.84 1.6,1.44 4.08,1.44 z"
         style="font-style:normal;font-variant:normal;font-weight:bold;font-stretch:normal;font-family:Montserrat;-inkscape-font-specification:'Montserrat Bold';fill:#e6e6e6"
         id="path4155" />
      <g
         transform="translate(0.63497639,47.421905)"
         id="g4483">
        <path
           id="path4266"
           style="font-style:normal;font-variant:normal;font-weight:600;font-stretch:normal;font-size:medium;line-height:125%;font-family:Montserrat;-inkscape-font-specification:'Montserrat Semi-Bold';letter-spacing:0px;word-spacing:0px;fill:#ffffff;fill-opacity:1;stroke:none;stroke-width:1px;stroke-linecap:butt;stroke-linejoin:miter;stroke-opacity:1"
           d="m 22.576897,975.40029 0,18.12 q 0,11.28001 -11.52,11.28001 -3.0799998,0 -5.8399998,-0.8 -2.76,-0.76 -4.55999998,-2.24 l 2.23999998,-3.76001 q 1.4,1.16 3.52,1.84 2.16,0.72001 4.3599998,0.72001 3.52,0 5.16,-1.60001 1.64,-1.6 1.64,-4.88 l 0,-1.12 q -1.28,1.4 -3.12,2.12 -1.84,0.72 -4.04,0.72 -3.0399998,0 -5.5199998,-1.28 -2.44,-1.32 -3.88,-3.68 -1.39999998,-2.36 -1.39999998,-5.4 0,-3.04 1.39999998,-5.36 1.44,-2.36 3.88,-3.64 2.48,-1.28 5.5199998,-1.28 2.32,0 4.2,0.76 1.92,0.76 3.2,2.32 l 0,-2.84 4.76,0 z m -11.4,16.16 q 2.84,0 4.64,-1.68 1.84,-1.72 1.84,-4.44 0,-2.68 -1.84,-4.36 -1.8,-1.68 -4.64,-1.68 -2.8799998,0 -4.7199998,1.68 -1.8,1.68 -1.8,4.36 0,2.72 1.8,4.44 1.84,1.68 4.7199998,1.68 z" />
        <path
           id="path4268"
           style="font-style:normal;font-variant:normal;font-weight:600;font-stretch:normal;font-size:medium;line-height:125%;font-family:Montserrat;-inkscape-font-specification:'Montserrat Semi-Bold';letter-spacing:0px;word-spacing:0px;fill:#ffffff;fill-opacity:1;stroke:none;stroke-width:1px;stroke-linecap:butt;stroke-linejoin:miter;stroke-opacity:1"
           d="m 38.711267,997.04029 q -3.24,0 -5.84,-1.4 -2.6,-1.4 -4.08,-3.88 -1.44,-2.52 -1.44,-5.68 0,-3.16 1.44,-5.64 1.48,-2.48 4.08,-3.88 2.6,-1.4 5.84,-1.4 3.28,0 5.88,1.4 2.6,1.4 4.04,3.88 1.48,2.48 1.48,5.64 0,3.16 -1.48,5.68 -1.44,2.48 -4.04,3.88 -2.6,1.4 -5.88,1.4 z m 0,-4.28 q 2.76,0 4.56,-1.84 1.8,-1.84 1.8,-4.84 0,-3 -1.8,-4.84 -1.8,-1.84 -4.56,-1.84 -2.76,0 -4.56,1.84 -1.76,1.84 -1.76,4.84 0,3 1.76,4.84 1.8,1.84 4.56,1.84 z" />
        <path
           id="path4270"
           style="font-style:normal;font-variant:normal;font-weight:600;font-stretch:normal;font-size:medium;line-height:125%;font-family:Montserrat;-inkscape-font-specification:'Montserrat Semi-Bold';letter-spacing:0px;word-spacing:0px;fill:#ffffff;fill-opacity:1;stroke:none;stroke-width:1px;stroke-linecap:butt;stroke-linejoin:miter;stroke-opacity:1"
           d="m 66.732517,975.16029 q 3.12,0 5.56,1.36 2.48,1.36 3.88,3.84 1.4,2.48 1.4,5.72 0,3.24 -1.4,5.76 -1.4,2.48 -3.88,3.84 -2.44,1.36 -5.56,1.36 -2.2,0 -4.04,-0.76 -1.8,-0.76 -3.04,-2.28 l 0,2.76 -4.76,0 0,-29.68 5,0 0,10.92 q 1.28,-1.4 3,-2.12 1.76,-0.72 3.84,-0.72 z m -0.56,17.6 q 2.76,0 4.52,-1.84 1.8,-1.84 1.8,-4.84 0,-3 -1.8,-4.84 -1.76,-1.84 -4.52,-1.84 -1.8,0 -3.24,0.84 -1.44,0.8 -2.28,2.32 -0.84,1.52 -0.84,3.52 0,2 0.84,3.52 0.84,1.52 2.28,2.36 1.44,0.8 3.24,0.8 z" />
        <path
           id="path4272"
           style="font-style:normal;font-variant:normal;font-weight:600;font-stretch:normal;font-size:medium;line-height:125%;font-family:Montserrat;-inkscape-font-specification:'Montserrat Semi-Bold';letter-spacing:0px;word-spacing:0px;fill:#ffffff;fill-opacity:1;stroke:none;stroke-width:1px;stroke-linecap:butt;stroke-linejoin:miter;stroke-opacity:1"
           d="m 83.523767,997.04029 q -1.36,0 -2.32,-0.92 -0.96,-0.96 -0.96,-2.4 0,-1.48 0.92,-2.4 0.96,-0.92 2.36,-0.92 1.4,0 2.32,0.92 0.96,0.92 0.96,2.4 0,1.44 -0.96,2.4 -0.96,0.92 -2.32,0.92 z" />
        <path
           id="path4274"
           style="font-style:normal;font-variant:normal;font-weight:600;font-stretch:normal;font-size:medium;line-height:125%;font-family:Montserrat;-inkscape-font-specification:'Montserrat Semi-Bold';letter-spacing:0px;word-spacing:0px;fill:#ffffff;fill-opacity:1;stroke:none;stroke-width:1px;stroke-linecap:butt;stroke-linejoin:miter;stroke-opacity:1"
           d="m 103.45127,975.16029 q 3.12,0 5.56,1.36 2.48,1.36 3.88,3.84 1.4,2.48 1.4,5.72 0,3.24 -1.4,5.76 -1.4,2.48 -3.88,3.84 -2.44,1.36 -5.56,1.36 -4.320003,0 -6.840003,-2.88 l 0,10.36001 -5,0 0,-29.12001 4.76,0 0,2.8 q 1.24,-1.52 3.04,-2.28 1.840003,-0.76 4.040003,-0.76 z m -0.56,17.6 q 2.76,0 4.52,-1.84 1.8,-1.84 1.8,-4.84 0,-3 -1.8,-4.84 -1.76,-1.84 -4.52,-1.84 -1.8,0 -3.240003,0.84 -1.44,0.8 -2.28,2.32 -0.84,1.52 -0.84,3.52 0,2 0.84,3.52 0.84,1.52 2.28,2.36 1.440003,0.8 3.240003,0.8 z" />
        <path
           id="path4276"
           style="font-style:normal;font-variant:normal;font-weight:600;font-stretch:normal;font-size:medium;line-height:125%;font-family:Montserrat;-inkscape-font-specification:'Montserrat Semi-Bold';letter-spacing:0px;word-spacing:0px;fill:#ffffff;fill-opacity:1;stroke:none;stroke-width:1px;stroke-linecap:butt;stroke-linejoin:miter;stroke-opacity:1"
           d="m 139.11315,986.20029 q 0,0.52 -0.08,1.48 l -16.76,0 q 0.44,2.36 2.28,3.76 1.88,1.36 4.64,1.36 3.52,0 5.8,-2.32 l 2.68,3.08 q -1.44,1.72 -3.64,2.6 -2.2,0.88 -4.96,0.88 -3.52,0 -6.2,-1.4 -2.68,-1.4 -4.16,-3.88 -1.44,-2.52 -1.44,-5.68 0,-3.12 1.4,-5.6 1.44,-2.52 3.96,-3.92 2.52,-1.4 5.68,-1.4 3.12,0 5.56,1.4 2.48,1.36 3.84,3.88 1.4,2.48 1.4,5.76 z m -10.8,-7.04 q -2.4,0 -4.08,1.44 -1.64,1.4 -2,3.76 l 12.12,0 q -0.32,-2.32 -1.96,-3.76 -1.64,-1.44 -4.08,-1.44 z" />
      </g>
      <text
         id="text4228"
         y="926.76379"
         x="258.80878"
         style="font-style:normal;font-weight:normal;font-size:40px;line-height:125%;font-family:sans-serif;letter-spacing:0px;word-spacing:0px;fill:#000000;fill-opacity:1;stroke:none;stroke-width:1px;stroke-linecap:butt;stroke-linejoin:miter;stroke-opacity:1"
         xml:space="preserve"><tspan
           y="926.76379"
           x="258.80878"
           id="tspan4230" /></text>
      <text
         id="text4232"
         y="603.25281"
         x="146.53143"
         style="font-style:normal;font-weight:normal;font-size:40px;line-height:125%;font-family:sans-serif;letter-spacing:0px;word-spacing:0px;fill:#000000;fill-opacity:1;stroke:none;stroke-width:1px;stroke-linecap:butt;stroke-linejoin:miter;stroke-opacity:1"
         xml:space="preserve"><tspan
           style="font-style:normal;font-variant:normal;font-weight:bold;font-stretch:normal;font-family:Montserrat;-inkscape-font-specification:'Montserrat Bold'"
           y="603.25281"
           x="146.53143"
           id="tspan4234">gob.pe</tspan></text>
      <path
         d="m 486.61803,397.6456 -7.11393,9.69939 3.95713,11.35902 -11.423,-3.76848 -9.58025,7.27358 0.0541,-12.02843 -9.87805,-6.8637 11.45645,-3.66551 3.47529,-11.51558 7.02633,9.76303 z"
         id="path4461"
         style="fill:#4d4d4d" />
    </g>
  </g>
</svg>
